<svg width="32" height="32" viewBox="0 0 32 32" xmlns="http://www.w3.org/2000/svg">
    <g fill="none" fill-rule="evenodd">
        <path d="M0 0h32v32H0z"/>
        <path d="m17.034 16.037 6.87-6.9a.72.72 0 0 0 0-1.04.712.712 0 0 0-1.035 0L16 14.999l-6.87-6.9a.712.712 0 0 0-1.033 0 .72.72 0 0 0 0 1.038l6.869 6.901-6.87 6.9a.72.72 0 0 0 0 1.04c.148.148.444.148.591.148.148 0 .444 0 .444-.148L16 17.076l6.87 6.9c.147.149.442.149.59.149.148 0 .443 0 .443-.148a.72.72 0 0 0 0-1.04l-6.869-6.9z" fill="#121217"/>
    </g>
</svg>
